<svg xmlns="http://www.w3.org/2000/svg" xmlns:xlink="http://www.w3.org/1999/xlink" viewBox="0 0 880.9 200.78"><defs><linearGradient id="a" x1="676.87" y1="141.54" x2="676.87" y2="55.91" gradientUnits="userSpaceOnUse"><stop offset="0" stop-color="#0071ca"/><stop offset="1" stop-color="#00b0f2"/></linearGradient><linearGradient id="b" x1="768.85" y1="173.69" x2="768.85" y2="54.02" xlink:href="#a"/><clipPath id="c"><path d="M202.87 120.22a47.25 47.25 0 0 0 21.5 6c9.28 0 13.4-3.78 13.4-9.29 0-5.67-3.43-8.59-13.75-12.21-16.33-5.67-23.21-14.61-23-24.41C201 65.54 213.19 54 232.62 54c9.28 0 17.36 2.41 22.18 5l-4.13 15A37.49 37.49 0 0 0 233 69.15c-7.57 0-11.69 3.61-11.69 8.77 0 5.33 3.95 7.91 14.62 11.69 15.13 5.51 22.18 13.24 22.35 25.62 0 15.14-11.87 26.14-34.05 26.14-10.14 0-19.26-2.41-25.45-5.85zm78.23-16.51c.51 15.13 12.38 21.67 25.79 21.67 9.8 0 16.85-1.38 23.21-3.79l3.1 14.62a79 79 0 0 1-29.2 5.16c-27.17 0-43.16-16.68-43.16-42.3 0-23.21 14.1-45 40.92-45 27.17 0 36.11 22.35 36.11 40.75a52.32 52.32 0 0 1-.69 8.94zm36.79-14.79c.17-7.73-3.26-20.46-17.36-20.46-13.07 0-18.57 11.87-19.43 20.46zm27.51-8.08c0-9.63-.18-17.71-.69-24.93h18.57l1 12.55h.52C368.44 61.93 377.55 54 391.48 54c14.61 0 29.75 9.45 29.75 35.94v49.69h-21.15V92.36c0-12-4.48-21.15-16-21.15-8.42 0-14.27 6-16.5 12.38a21.56 21.56 0 0 0-.86 6.88v49.18H345.4zm87.85 39.38a47.24 47.24 0 0 0 21.49 6c9.29 0 13.41-3.78 13.41-9.29 0-5.67-3.43-8.59-13.75-12.21-16.33-5.67-23.21-14.61-23-24.41C431.36 65.54 443.57 54 463 54c9.28 0 17.36 2.41 22.18 5l-4.13 15a37.49 37.49 0 0 0-17.71-4.82c-7.56 0-11.69 3.61-11.69 8.77 0 5.33 4 7.91 14.61 11.69 15.14 5.51 22.19 13.24 22.36 25.62 0 15.14-11.87 26.14-34.05 26.14-10.14 0-19.26-2.41-25.45-5.85zM576.13 97c0 30.78-21.67 44.53-43 44.53-23.73 0-41.95-16.34-41.95-43.16 0-27.51 18.05-44.36 43.33-44.36C559.45 54 576.13 71.56 576.13 97zm-63.13.86c0 16.17 7.91 28.38 20.81 28.38 12 0 20.46-11.87 20.46-28.72 0-13.06-5.85-28-20.29-28C519 69.49 513 83.94 513 97.86zm71-15c0-11.35-.17-19.44-.69-27h18.4l.69 16h.68C607.24 60 617 54 626 54a21.85 21.85 0 0 1 5 .52v19.96a29.64 29.64 0 0 0-6.19-.69c-10.15 0-17 6.54-18.91 16a35.66 35.66 0 0 0-.69 6.53v43.33H584zm130.15 31.64c0 10 .35 18.22.69 25.1H696.3l-1-12.73h-.35c-3.6 6-11.86 14.62-26.82 14.62-15.3 0-29.23-9.11-29.23-36.45V55.91H660v45.57c0 13.92 4.47 22.87 15.65 22.87 8.42 0 13.92-6 16.16-11.35a19.17 19.17 0 0 0 1.2-6.53V55.91h21.15zm13.4-30.78c0-11-.34-19.95-.68-27.86h18.57l1 12.89h.34C753 59.35 762.83 54 775.56 54c19.25 0 35.24 16.51 35.24 42.64 0 30.26-19.08 44.88-38.17 44.88-10.49 0-19.25-4.47-23.55-11.17h-.35v43.32h-21.15zm21.15 20.8a21.66 21.66 0 0 0 .69 5.85A19.12 19.12 0 0 0 768 125.2c13.42 0 21.32-11.17 21.32-27.68 0-14.78-7.22-26.82-20.8-26.82a19.72 19.72 0 0 0-18.92 15.65 19.39 19.39 0 0 0-.86 5.33z" fill="none"/></clipPath><linearGradient id="d" x1="536.52" y1="99.46" x2="536.52" y2="18.68" gradientUnits="userSpaceOnUse"><stop offset="0" stop-color="#fff" stop-opacity=".22"/><stop offset=".52" stop-color="#fff" stop-opacity="0"/></linearGradient><radialGradient id="e" cx="-1934.2" cy="-472.87" r="96.5" gradientTransform="matrix(1.03 0 0 .11 2090.94 241.85)" gradientUnits="userSpaceOnUse"><stop offset="0" stop-color="#808184"/><stop offset=".75" stop-color="#fff" stop-opacity="0"/></radialGradient><linearGradient id="f" x1="97.37" y1="168.48" x2="97.37" y2="19.01" xlink:href="#a"/></defs><path d="M202.87 120.22a47.25 47.25 0 0 0 21.5 6c9.28 0 13.4-3.78 13.4-9.29 0-5.67-3.43-8.59-13.75-12.21-16.33-5.67-23.21-14.61-23-24.41C201 65.54 213.19 54 232.62 54c9.28 0 17.36 2.41 22.18 5l-4.13 15A37.49 37.49 0 0 0 233 69.15c-7.57 0-11.69 3.61-11.69 8.77 0 5.33 3.95 7.91 14.62 11.69 15.13 5.51 22.18 13.24 22.35 25.62 0 15.14-11.87 26.14-34.05 26.14-10.14 0-19.26-2.41-25.45-5.85zm78.23-16.51c.51 15.13 12.38 21.67 25.79 21.67 9.8 0 16.85-1.38 23.21-3.79l3.1 14.62a79 79 0 0 1-29.2 5.16c-27.17 0-43.16-16.68-43.16-42.3 0-23.21 14.1-45 40.92-45 27.17 0 36.11 22.35 36.11 40.75a52.32 52.32 0 0 1-.69 8.94zm36.79-14.79c.17-7.73-3.26-20.46-17.36-20.46-13.07 0-18.57 11.87-19.43 20.46zm27.51-8.08c0-9.63-.18-17.71-.69-24.93h18.57l1 12.55h.52C368.44 61.93 377.55 54 391.48 54c14.61 0 29.75 9.45 29.75 35.94v49.69h-21.15V92.36c0-12-4.48-21.15-16-21.15-8.42 0-14.27 6-16.5 12.38a21.56 21.56 0 0 0-.86 6.88v49.18H345.4zm87.85 39.38a47.24 47.24 0 0 0 21.49 6c9.29 0 13.41-3.78 13.41-9.29 0-5.67-3.43-8.59-13.75-12.21-16.33-5.67-23.21-14.61-23-24.41C431.36 65.54 443.57 54 463 54c9.28 0 17.36 2.41 22.18 5l-4.13 15a37.49 37.49 0 0 0-17.71-4.82c-7.56 0-11.69 3.61-11.69 8.77 0 5.33 4 7.91 14.61 11.69 15.14 5.51 22.19 13.24 22.36 25.62 0 15.14-11.87 26.14-34.05 26.14-10.14 0-19.26-2.41-25.45-5.85zM576.13 97c0 30.78-21.67 44.53-43 44.53-23.73 0-41.95-16.34-41.95-43.16 0-27.51 18.05-44.36 43.33-44.36C559.45 54 576.13 71.56 576.13 97zm-63.13.86c0 16.17 7.91 28.38 20.81 28.38 12 0 20.46-11.87 20.46-28.72 0-13.06-5.85-28-20.29-28C519 69.49 513 83.94 513 97.86zm71-14.95c0-11.35-.17-19.44-.69-27h18.4l.69 16h.68C607.24 60 617 54 626 54a21.85 21.85 0 0 1 5 .52v19.96a29.64 29.64 0 0 0-6.19-.69c-10.15 0-17 6.54-18.91 16a35.66 35.66 0 0 0-.69 6.53v43.33H584z" fill="#515152"/><path d="M714.18 114.55c0 10 .35 18.22.69 25.1H696.3l-1-12.73h-.35c-3.6 6-11.86 14.62-26.82 14.62-15.3 0-29.23-9.11-29.23-36.45V55.91H660v45.57c0 13.92 4.47 22.87 15.65 22.87 8.42 0 13.92-6 16.16-11.35a19.17 19.17 0 0 0 1.2-6.53V55.91h21.15z" fill="url(#a)"/><path d="M727.58 83.77c0-11-.34-19.95-.68-27.86h18.57l1 12.89h.34C753 59.35 762.83 54 775.56 54c19.25 0 35.24 16.51 35.24 42.64 0 30.26-19.08 44.88-38.17 44.88-10.49 0-19.25-4.47-23.55-11.17h-.35v43.32h-21.15zm21.15 20.8a21.66 21.66 0 0 0 .69 5.85A19.12 19.12 0 0 0 768 125.2c13.42 0 21.32-11.17 21.32-27.68 0-14.78-7.22-26.82-20.8-26.82a19.72 19.72 0 0 0-18.92 15.65 19.39 19.39 0 0 0-.86 5.33z" fill="url(#b)"/><g clip-path="url(#c)"><path fill="url(#d)" d="M192.13 18.68H880.9v80.79H192.13z"/></g><path d="M23.26 30.54C45 5.18 79.39-2.86 108.25 8a74.57 74.57 0 0 0-94.34 110c-15.13-26.92-12.4-62.1 9.35-87.46z" fill="#d4effc"/><path d="M33.91 39.67c21.75-25.35 56.11-33.4 85-22.52a74.56 74.56 0 0 0-94.35 109.94C9.42 100.21 12.15 65 33.91 39.67z" fill="#76d0f6"/><path d="M200.51 190.26c0 5.81-44.45 10.52-99.28 10.52S2 196.07 2 190.26s44.45-10.53 99.28-10.53 99.23 4.71 99.23 10.53z" fill="url(#e)"/><path d="M26.57 117.33A74.72 74.72 0 1 1 172 88.24l-25.53-17.8a14 14 0 1 0-25.72 4.77l-20.12 34.24a14.62 14.62 0 0 0-10.18 1.64L66.1 92a14.48 14.48 0 1 0-26 4.09L26.57 117.3zm145.11-14.68l-32.19-22.53a14 14 0 0 1-8.8 1.66l-20.38 34.66a14.57 14.57 0 1 1-26.85 4.29l-24.91-19.5a14.63 14.63 0 0 1-8.48 1.31l-17.73 27.82a74.74 74.74 0 0 0 100.28 29.35l39.19 7.7-10.65-34.53a74.32 74.32 0 0 0 10.52-30.23z" fill="url(#f)"/></svg>