<svg xmlns="http://www.w3.org/2000/svg" viewBox="0 0 493.84 483.74"><defs><style>.a{fill:#fff}</style></defs><path class="a" d="M66.8 87.69C129.28 14.88 227.94-8.22 310.82 23 224.88-20.52 117-1.74 51.5 74.56S-16.13 260.35 40 338.67C-3.52 261.52 4.33 160.5 66.8 87.69z"/><path class="a" d="M66.8 87.69C129.28 14.88 227.94-8.22 310.82 23 224.88-20.52 117-1.74 51.5 74.56S-16.13 260.35 40 338.67C-3.52 261.52 4.33 160.5 66.8 87.69z"/><path class="a" d="M66.8 87.69C129.28 14.88 227.94-8.22 310.82 23 224.88-20.52 117-1.74 51.5 74.56S-16.13 260.35 40 338.67C-3.52 261.52 4.33 160.5 66.8 87.69z"/><path class="a" d="M66.8 87.69C129.28 14.88 227.94-8.22 310.82 23 224.88-20.52 117-1.74 51.5 74.56S-16.13 260.35 40 338.67C-3.52 261.52 4.33 160.5 66.8 87.69z"/><path class="a" d="M97.36 113.91c62.47-72.8 161.11-95.91 244-64.67C255.4 5.7 147.51 24.5 82.05 100.77S14.42 286.59 70.51 364.9C27 287.74 34.88 186.72 97.36 113.91z"/><path class="a" d="M97.36 113.91c62.47-72.8 161.11-95.91 244-64.67C255.4 5.7 147.51 24.5 82.05 100.77S14.42 286.59 70.51 364.9C27 287.74 34.88 186.72 97.36 113.91z"/><path class="a" d="M97.36 113.91c62.47-72.8 161.11-95.91 244-64.67C255.4 5.7 147.51 24.5 82.05 100.77S14.42 286.59 70.51 364.9C27 287.74 34.88 186.72 97.36 113.91z"/><path class="a" d="M97.36 113.91c62.47-72.8 161.11-95.91 244-64.67C255.4 5.7 147.51 24.5 82.05 100.77S14.42 286.59 70.51 364.9C27 287.74 34.88 186.72 97.36 113.91z"/><path class="a" d="M76.29 336.89a214.27 214.27 0 0 1-11-67.72c0-118.52 96.07-214.59 214.58-214.59 113.19 0 205.84 87.65 213.94 198.79l-73.31-51.13A40.31 40.31 0 1 0 346.68 216l-57.78 98.25a41.84 41.84 0 0 0-29.23 4.75l-69.89-54.76A41.57 41.57 0 1 0 115 276l-38.71 60.79zm416.65-42.17L400.52 230a40.34 40.34 0 0 1-25.29 4.78l-58.51 99.5a41.83 41.83 0 1 1-77.08 12.35l-71.53-56a41.81 41.81 0 0 1-24.34 3.77l-50.91 79.9a214.58 214.58 0 0 0 287.91 84.26l112.53 22.1-30.59-99.14a213.18 213.18 0 0 0 30.23-86.8z"/><path class="a" d="M76.29 336.89a214.27 214.27 0 0 1-11-67.72c0-118.52 96.07-214.59 214.58-214.59 113.19 0 205.84 87.65 213.94 198.79l-73.31-51.13A40.31 40.31 0 1 0 346.68 216l-57.78 98.25a41.84 41.84 0 0 0-29.23 4.75l-69.89-54.76A41.57 41.57 0 1 0 115 276l-38.71 60.79zm416.65-42.17L400.52 230a40.34 40.34 0 0 1-25.29 4.78l-58.51 99.5a41.83 41.83 0 1 1-77.08 12.35l-71.53-56a41.81 41.81 0 0 1-24.34 3.77l-50.91 79.9a214.58 214.58 0 0 0 287.91 84.26l112.53 22.1-30.59-99.14a213.18 213.18 0 0 0 30.23-86.8z"/><path class="a" d="M76.29 336.89a214.27 214.27 0 0 1-11-67.72c0-118.52 96.07-214.59 214.58-214.59 113.19 0 205.84 87.65 213.94 198.79l-73.31-51.13A40.31 40.31 0 1 0 346.68 216l-57.78 98.25a41.84 41.84 0 0 0-29.23 4.75l-69.89-54.76A41.57 41.57 0 1 0 115 276l-38.71 60.79zm416.65-42.17L400.52 230a40.34 40.34 0 0 1-25.29 4.78l-58.51 99.5a41.83 41.83 0 1 1-77.08 12.35l-71.53-56a41.81 41.81 0 0 1-24.34 3.77l-50.91 79.9a214.58 214.58 0 0 0 287.91 84.26l112.53 22.1-30.59-99.14a213.18 213.18 0 0 0 30.23-86.8z"/><path class="a" d="M76.29 336.89a214.27 214.27 0 0 1-11-67.72c0-118.52 96.07-214.59 214.58-214.59 113.19 0 205.84 87.65 213.94 198.79l-73.31-51.13A40.31 40.31 0 1 0 346.68 216l-57.78 98.25a41.84 41.84 0 0 0-29.23 4.75l-69.89-54.76A41.57 41.57 0 1 0 115 276l-38.71 60.79zm416.65-42.17L400.52 230a40.34 40.34 0 0 1-25.29 4.78l-58.51 99.5a41.83 41.83 0 1 1-77.08 12.35l-71.53-56a41.81 41.81 0 0 1-24.34 3.77l-50.91 79.9a214.58 214.58 0 0 0 287.91 84.26l112.53 22.1-30.59-99.14a213.18 213.18 0 0 0 30.23-86.8z"/></svg>